<svg enable-background="new 0 0 26 26" viewBox="0 0 26 26" xmlns="http://www.w3.org/2000/svg"><path d="m14.0605469 13 10.7197265-10.7197266c.2929688-.2929688.2929688-.7675781 0-1.0605469s-.7675781-.2929688-1.0605469 0l-10.7197265 10.7197266-10.7197266-10.7197265c-.2929688-.2929688-.7675781-.2929688-1.0605469 0s-.2929688.7675781 0 1.0605469l10.7197266 10.7197265-10.7197265 10.7197266c-.2929688.2929688-.2929688.7675781 0 1.0605469.1464843.1464843.3378906.2197265.5302734.2197265s.3837891-.0732422.5302734-.2197266l10.7197266-10.7197265 10.7197266 10.7197266c.1464843.1464843.3378906.2197265.5302734.2197265s.3837891-.0732422.5302734-.2197266c.2929688-.2929688.2929688-.7675781 0-1.0605469z" fill="#1d1d1b"/></svg>