<svg enable-background="new 0 0 32 32" viewBox="0 0 32 32" xmlns="http://www.w3.org/2000/svg"><g style="fill:none;stroke:#000;stroke-width:2;stroke-linecap:round;stroke-linejoin:round;stroke-miterlimit:10"><path d="m11.2 21c.4 1.2 1.5 2 2.8 2"/><path d="m13 17v2"/><path d="m19 17v2"/><path d="m17.9 3.3c2.3 1.9 3.1 5.2 1.7 7.9-1.3 2.5-4.4 3.4-6.8 2.1-2-1-2.7-3.5-1.7-5.5.8-1.6 2.8-2.2 4.4-1.4 1.3.7 1.8 2.2 1.1 3.5"/><path d="m11.9 6.8c-3.2 1.3-5.6 4-6.5 7.3-1.4.2-2.4 1.4-2.4 2.9s1 2.7 2.4 2.9c1.3 4.7 5.5 8.1 10.6 8.1s9.3-3.4 10.6-8.1c1.4-.2 2.4-1.4 2.4-2.9s-1-2.7-2.4-2.9c-.9-3.3-3.3-6-6.5-7.3"/></g></svg>