<svg enable-background="new 0 0 32 32" viewBox="0 0 32 32" xmlns="http://www.w3.org/2000/svg"><path d="m22.7 22.9c-2.2-.5-3.7-2.5-3.7-4.7 1.8-1 3-3 3-5.2 0-1.1.9-2 2-2v-2.3c0-2.8-2.1-5.4-4.9-5.7-2-.2-3.8.6-4.9 2.1-.8-.2-1.6-.1-2.6.6-1 .8-1.6 2-1.6 3.3v1 1.5 1.3c0 2.2 1.2 4.3 3 5.4 0 2.3-1.6 4.2-3.8 4.8-2.6.7-4.5 2.8-5.1 5.4 0 .3.2.6.6.6h22.7c.4 0 .6-.3.5-.7-.6-2.6-2.6-4.7-5.2-5.4z" style="fill:none;stroke:#fff;stroke-width:2;stroke-linecap:round;stroke-linejoin:round;stroke-miterlimit:10"/></svg>