<svg enable-background="new 0 0 32 32" viewBox="0 0 32 32" xmlns="http://www.w3.org/2000/svg"><g fill="none" stroke="#000" stroke-linejoin="round" stroke-miterlimit="10" stroke-width="2"><path d="m22 14c0 2.2-1.2 4.1-3 5.2 0 1.7 1.1 3.2 2.7 3.7 2.1.7 3.6 2.4 4 4.6l.2.9c.1.3-.2.7-.5.7h-18.7c-.3 0-.6-.3-.5-.7l.2-.9c.4-2.1 2-3.9 4-4.6 1.6-.5 2.7-2 2.7-3.7-1.8-1.1-3-3.2-3-5.4v-4.8" stroke-linecap="round"/><path d="m8.3 24.1c-1.5-3.1-2.3-6.7-2.3-10.1 0-7.7 4.5-11 10-11s10 3.3 10 11c0 3.4-.8 7-2.3 10.1"/><path d="m26.1 13.5c-1.3.3-2.7.5-4.1.5-6.9 0-12.6-3.8-13-8.5"/></g></svg>