<?xml version="1.0" encoding="iso-8859-1"?>
<!-- Generator: Adobe Illustrator 19.0.0, SVG Export Plug-In . SVG Version: 6.00 Build 0)  -->
<svg version="1.1" id="Capa_1" xmlns="http://www.w3.org/2000/svg" xmlns:xlink="http://www.w3.org/1999/xlink" x="0px" y="0px"
	 viewBox="0 0 512 512" style="enable-background:new 0 0 512 512;" xml:space="preserve">
<g>
	<path style="fill:none;" d="M332.34,336h169.41V222.5H378.84H242.25c-22.09,0-40,17.91-40,40V336H332.34z"/>
	<path style="fill:none;" d="M106.481,336c-6.812-11.77-10.731-25.423-10.731-40v-76h-39v116H106.481z"/>
</g>
<path style="fill:none;" d="M155.75,296v-80c0-22.09,17.91-40,40-40h136.59c-8.24-23.3-30.47-40-56.59-40h-100
	c-44.179,0-80,35.82-80,80v80c0,44.182,35.824,80,80,80h100c26.12,0,48.35-16.7,56.59-40H195.75
	C173.66,336,155.75,318.09,155.75,296z"/>
<path style="fill:none;" d="M435.75,356h-60c0-27.116,0-107.925,0-135h60C435.75,227.009,435.75,335.508,435.75,356z"/>
<g>
	<path style="fill:none;" d="M332.34,176c-8.24-23.3-30.47-40-56.59-40h-100c-29.603,0-55.434,16.095-69.269,40h89.269H332.34z"
		/>
	<path style="fill:none;" d="M106.481,336c13.836,23.905,39.667,40,69.269,40h100c26.12,0,48.35-16.7,56.59-40H195.75H106.481z"
		/>
	<path style="fill:none;" d="M155.75,296v-80c0-22.09,17.91-40,40-40h-89.269c-6.812,11.77-10.731,25.424-10.731,40v80
		c0,14.577,3.919,28.23,10.731,40h89.269C173.66,336,155.75,318.09,155.75,296z"/>
</g>
<path style="fill:none;" d="M235.75,256c0-11.05-8.95-20-20-20h-18c-11.04,0-20,8.96-20,20c0,11.05,8.95,20,20,20h18
	C226.79,276,235.75,267.04,235.75,256z"/>
<path fill="#fff" d="M276,246c-5.52,0-10,4.48-10,10c0,5.52,4.48,10,10,10s10-4.48,10-10S281.52,246,276,246z"/>
<path fill="#fff" d="M436,146h-60c-5.522,0-10,4.477-10,10v10h-26.748c-11.485-24.188-36.064-40-63.252-40H176c-30.053,0-58.21,15.186-74.841,40
	H10c-5.522,0-10,4.477-10,10v160c0,5.523,4.478,10,10,10h91.159c16.626,24.812,44.785,40,74.841,40h100
	c27.188,0,51.766-15.812,63.252-40H366v10c0,5.523,4.478,10,10,10h60c5.522,0,10-4.477,10-10v-10h56c5.522,0,10-4.477,10-10V176
	c0-5.523-4.478-10-10-10h-56v-10C446,150.477,441.522,146,436,146z M20,185.9h71.149C87.764,195.492,86,205.743,86,216v80
	c0,10.256,1.764,20.406,5.149,30H20V185.9z M276,366H176c-37.915,0-70-30.697-70-70v-80c0-39.301,32.079-70,70-70h100
	c15.99,0,30.717,7.655,40.003,20H196c-27.57,0-50,22.43-50,50v11.704c-11.391,4.019-20,14.965-20,28.296
	c0,13.036,8.361,24.152,20,28.28V296c0,27.57,22.43,49.9,50,49.9h120.003C306.717,358.245,291.99,366,276,366z M156,266
	c-5.514,0-10-4.486-10-10c0-5.522,4.479-10,10-10h60c5.514,0,10,4.486,10,10c0,5.522-4.479,10-10,10H156z M196,326
	c-16.542,0-30-13.458-30-30v-10h50c16.575,0,30-13.424,30-30c0-16.542-13.458-30-30-30h-50v-10c0-16.542,13.458-30,30-30h170v60h-50
	c-5.522,0-10,4.477-10,10c0,5.523,4.478,10,10,10h50v60H196z M426,346h-40V166h40V346z M492,186v140h-46V186H492z"/>
<g>
</g>
<g>
</g>
<g>
</g>
<g>
</g>
<g>
</g>
<g>
</g>
<g>
</g>
<g>
</g>
<g>
</g>
<g>
</g>
<g>
</g>
<g>
</g>
<g>
</g>
<g>
</g>
<g>
</g>
</svg>
