<?xml version="1.0" encoding="utf-8"?>
<!-- Generator: Adobe Illustrator 23.0.3, SVG Export Plug-In . SVG Version: 6.00 Build 0)  -->
<svg version="1.1" id="Layer_1" xmlns="http://www.w3.org/2000/svg" xmlns:xlink="http://www.w3.org/1999/xlink" x="0px" y="0px"
	 viewBox="0 0 150 150" style="enable-background:new 0 0 150 150;" xml:space="preserve">
<style type="text/css">
	.st0{fill:#FFFFFF;}
	.st1{fill:none;stroke:#000000;stroke-width:3;stroke-linecap:round;stroke-linejoin:round;stroke-miterlimit:10;}
	.st2{fill:url(#SVGID_1_);}
	.st3{fill:url(#SVGID_2_);}
	.st4{fill:url(#SVGID_3_);}
	.st5{fill:url(#SVGID_4_);}
	.st6{fill:url(#SVGID_5_);}
	.st7{fill:url(#SVGID_6_);}
	.st8{fill:url(#SVGID_7_);}
	.st9{fill:url(#SVGID_8_);}
	.st10{fill:url(#SVGID_9_);}
	.st11{fill:url(#SVGID_10_);}
	.st12{fill:url(#SVGID_11_);}
	.st13{fill:url(#SVGID_12_);}
	.st14{fill:url(#SVGID_13_);}
	.st15{fill:url(#SVGID_14_);}
	.st16{fill:url(#SVGID_15_);}
	.st17{fill:url(#SVGID_16_);}
	.st18{fill:url(#SVGID_17_);}
	.st19{fill:url(#SVGID_18_);}
	.st20{fill:#63BE6E;}
	.st21{fill:#E53357;}
	.st22{fill:#5955A2;}
	.st23{fill:#92870B;}
	.st24{fill:#EDC21D;}
	.st25{fill:#007837;}
	.st26{fill:#EC694B;}
	.st27{fill:#3D64A9;}
	.st28{fill:#9A782E;}
	.st29{fill:#A8B436;}
	.st30{fill:#F7F7F7;}
	.st31{fill:url(#SVGID_19_);}
	.st32{fill:url(#SVGID_20_);}
	.st33{fill:url(#SVGID_21_);}
	.st34{fill:url(#SVGID_22_);}
	.st35{fill:url(#SVGID_23_);}
	.st36{fill:url(#SVGID_24_);}
	.st37{fill:url(#SVGID_25_);}
	.st38{fill:url(#SVGID_26_);}
	.st39{fill:url(#SVGID_27_);}
	.st40{fill:url(#SVGID_28_);}
	.st41{fill:url(#SVGID_29_);}
	.st42{fill:url(#SVGID_30_);}
	.st43{fill:url(#SVGID_31_);}
	.st44{fill:url(#SVGID_32_);}
	.st45{fill:url(#SVGID_33_);}
	.st46{fill:url(#SVGID_34_);}
	.st47{fill:url(#SVGID_35_);}
	.st48{fill:url(#SVGID_36_);}
	.st49{fill:url(#SVGID_37_);}
	.st50{fill:url(#SVGID_38_);}
	.st51{fill:url(#SVGID_39_);}
	.st52{fill:url(#SVGID_40_);}
	.st53{fill:url(#SVGID_41_);}
	.st54{fill:url(#SVGID_42_);}
	.st55{fill:url(#SVGID_43_);}
	.st56{fill:url(#SVGID_44_);}
	.st57{fill:url(#SVGID_45_);}
	.st58{fill:url(#SVGID_46_);}
	.st59{fill:url(#SVGID_47_);}
	.st60{fill:url(#SVGID_48_);}
	.st61{fill:url(#SVGID_49_);}
	.st62{fill:url(#SVGID_50_);}
	.st63{fill:#0C509F;}
	.st64{fill:url(#SVGID_51_);}
	.st65{fill:url(#SVGID_52_);}
	.st66{fill:url(#SVGID_53_);}
	.st67{fill:url(#SVGID_54_);}
	.st68{fill:url(#SVGID_55_);}
	.st69{fill:url(#SVGID_56_);}
	.st70{fill:url(#SVGID_57_);}
	.st71{fill:url(#SVGID_58_);}
	.st72{fill:url(#SVGID_59_);}
	.st73{fill:url(#SVGID_60_);}
	.st74{fill:url(#SVGID_61_);}
	.st75{fill:url(#SVGID_62_);}
	.st76{fill:url(#SVGID_63_);}
	.st77{fill:url(#SVGID_64_);}
	.st78{fill:url(#SVGID_65_);}
	.st79{fill:url(#SVGID_66_);}
	.st80{fill:url(#SVGID_67_);}
	.st81{fill:url(#SVGID_68_);}
	.st82{fill:url(#SVGID_69_);}
	.st83{fill:url(#SVGID_70_);}
	.st84{fill:url(#SVGID_71_);}
	.st85{fill:url(#SVGID_72_);}
	.st86{fill:url(#SVGID_73_);}
	.st87{fill:url(#SVGID_74_);}
	.st88{fill:url(#SVGID_75_);}
	.st89{fill:url(#SVGID_76_);}
	.st90{fill:url(#SVGID_77_);}
	.st91{fill:url(#SVGID_78_);}
	.st92{fill:url(#SVGID_79_);}
	.st93{fill:url(#SVGID_80_);}
	.st94{fill:url(#SVGID_81_);}
	.st95{fill:url(#SVGID_82_);}
	.st96{fill:url(#SVGID_83_);}
	.st97{fill:url(#SVGID_84_);}
	.st98{fill:url(#SVGID_85_);}
	.st99{fill:url(#SVGID_86_);}
	.st100{fill:url(#SVGID_87_);}
	.st101{fill:url(#SVGID_88_);}
	.st102{fill:url(#SVGID_89_);}
	.st103{fill:url(#SVGID_90_);}
	.st104{fill:url(#SVGID_91_);}
	.st105{fill:url(#SVGID_92_);}
	.st106{fill:url(#SVGID_93_);}
	.st107{fill:url(#SVGID_94_);}
	.st108{fill:url(#SVGID_95_);}
	.st109{fill:url(#SVGID_96_);}
	.st110{fill:url(#SVGID_97_);}
	.st111{fill:url(#SVGID_98_);}
	.st112{fill:url(#SVGID_99_);}
	.st113{fill:url(#SVGID_100_);}
</style>
<g fill="#fff">
	<g>
		<path d="M18.5,100.4c-0.3,0-0.6-0.1-0.8-0.2c-0.4-0.3-0.7-0.8-0.7-1.3V76c0-0.6,0.8-11.7,8.5-23.3C32.3,42.5,46,30.1,72.6,28
			c2.1-0.3,3.5-0.2,3.7-0.2c0.8,0,1.4,0.7,1.4,1.5s-0.6,1.5-1.4,1.5c-1,0-1.9,0.1-2.9,0.2c-4.1,0.5-12,2.4-19,9.4
			C43.6,51,38.5,69.1,39.4,94.2c0,0.8-0.5,1.4-1.3,1.5c-12.3,1.6-18.9,4.6-19,4.6C18.9,100.4,18.7,100.4,18.5,100.4z M58,33.5
			c-13.1,3.6-23.1,10.6-30,20.9c-7.3,10.9-8,21.6-8,21.7l0,20.6c2.8-1,8.3-2.7,16.4-3.8c-0.7-25.3,4.7-43.7,15.9-54.8
			C54.2,36.3,56.1,34.7,58,33.5z"/>
		<path d="M83.3,83.1H70.2c-3.5,0-6.3-2.8-6.3-6.3s2.8-6.3,6.3-6.3h13.1c3.5,0,6.3,2.8,6.3,6.3S86.7,83.1,83.3,83.1z M70.2,73.6
			c-1.8,0-3.3,1.5-3.3,3.3s1.5,3.3,3.3,3.3h13.1c1.8,0,3.3-1.5,3.3-3.3s-1.5-3.3-3.3-3.3H70.2z"/>
		<path d="M127.9,116.9c-0.3,0-0.6,0-0.9-0.1c-17.9-4-49.8-3.6-50.1-3.5h-0.7c-0.3,0-32.2-0.4-50.1,3.5c-1.4,0.3-2.8-0.1-3.8-1.1
			c-1-1-1.4-2.4-1.1-3.7c0,0,0-0.1,0-0.1l5.5-16.3c0.3-0.8,1.1-1.2,1.9-0.9c0.8,0.3,1.2,1.1,0.9,1.9l-5.4,16.3
			c-0.1,0.5,0.2,0.8,0.3,0.9c0.1,0.1,0.5,0.4,1,0.3c18.2-4,49.5-3.6,50.8-3.6h0.6c1.3,0,32.5-0.4,50.8,3.6c0.5,0.1,0.9-0.2,1-0.3
			c0.1-0.1,0.4-0.4,0.3-0.9l-5.4-16.3c-0.3-0.8,0.2-1.6,0.9-1.9c0.8-0.3,1.6,0.2,1.9,0.9l5.5,16.3c0,0,0,0.1,0,0.1
			c0.3,1.4-0.1,2.8-1.1,3.7C130,116.5,129,116.9,127.9,116.9z"/>
		<path d="M134.6,100.4c-0.2,0-0.4,0-0.6-0.1c-0.1,0-6.7-3-19-4.6c-0.8-0.1-1.3-0.8-1.3-1.5c0.9-25.1-4.2-43.2-15-53.9
			c-7-6.9-14.7-8.8-18.8-9.3c-1-0.1-2-0.1-3-0.2c-0.8,0-1.4-0.7-1.4-1.5s0.6-1.5,1.4-1.5c0.2,0,1.5-0.1,3.7,0.2
			c26.7,2.2,40.3,14.5,47.1,24.8c7.7,11.6,8.5,22.7,8.5,23.2l0,23c0,0.5-0.3,1-0.7,1.3C135.1,100.4,134.9,100.4,134.6,100.4z
			 M116.7,92.9c8.1,1.1,13.6,2.8,16.4,3.8V76c0,0-0.8-10.8-8.1-21.7C118.1,44,108.1,37.1,95,33.5c1.9,1.3,3.8,2.8,5.7,4.7
			C112,49.2,117.4,67.7,116.7,92.9z"/>
		<path d="M22.7,125c-2.8,0-5.4-1.1-7.4-3.2c-2.3-2.4-3.3-5.6-2.8-8.9c0.8-4.5,2.3-9.4,4.6-14.6c0.2-0.4,0.5-0.7,0.9-0.8
			c0.8-0.3,20.9-7.4,58.2-7.1h0.7c37-0.2,57.4,6.8,58.2,7.1c0.4,0.1,0.7,0.4,0.9,0.8c2.3,5.2,3.8,10.1,4.6,14.6
			c0.5,3.3-0.5,6.5-2.8,8.9c-2.3,2.4-5.5,3.5-8.8,3.1c-18.8-2.5-51.5-2.9-52.1-2.9h-0.7c-0.3,0-33.2,0.4-52.1,2.9
			C23.6,125,23.2,125,22.7,125z M19.6,100.2c-2.1,4.8-3.4,9.2-4.1,13.3c-0.4,2.3,0.3,4.6,2,6.3c1.6,1.7,3.9,2.5,6.3,2.2
			c19.1-2.6,52.1-3,52.5-3h0.7c0,0,0,0,0,0c0.3,0,33.4,0.4,52.5,3c2.3,0.3,4.6-0.5,6.3-2.2c1.6-1.7,2.4-4,2-6.3
			c-0.7-4.1-2.1-8.5-4.1-13.3c-3.7-1.2-23.6-6.9-56.6-6.8h-0.7C42.9,93.2,23.2,99,19.6,100.2z"/>
		<path d="M83.1,30.7H70.8c-0.8,0-1.5-0.7-1.5-1.5V27c0-3.4,2.6-5.5,6.5-5.5h2.3c4,0,6.5,2.2,6.5,5.5v2.2
			C84.6,30.1,84,30.7,83.1,30.7z M72.3,27.7h9.4V27c0-2.2-2.2-2.5-3.5-2.5h-2.3c-1.3,0-3.5,0.3-3.5,2.5V27.7z"/>
	</g>
</g>
</svg>
