<svg enable-background="new 0 0 512 512" viewBox="0 0 512 512" xmlns="http://www.w3.org/2000/svg"><path fill="none" d="m375.767 50v-40c-6.504 0-104.18 0-173 0v40c-13.15 26.31-20 55.31-20 84.72v367.28h53v-150.02c0-67.82 6.7-135.48 20-201.98 13.142 65.711 20 133.347 20 201.98v150.02h27 40 53v-367.28c0-29.41-6.85-58.41-20-84.72z" /><path fill="none" d="m396.287 147.59h-.1c-34.72-8.74-60.42-40.16-60.42-77.59v-20h40c14.24 28.48 19.17 53.41 20.52 97.59z" /><path fill="none" d="m175.767 50v20c0 37.43-25.71 68.86-60.43 77.59h-.09c1.37-43.99 6.35-69.25 20.52-97.59z" /><path fill="#fff" d="m346.017 316c0 5.52 4.48 10 10 10s10-4.48 10-10-4.48-10-10-10-10 4.48-10 10z"/><path fill="#fff" d="m376.017 0c-10.723 0-230.174 0-240 0-5.522 0-10 4.477-10 10v37.675c-13.706 28.161-19.114 54.6-20.515 99.598-.806 25.461-.427 56.219.099 98.79.635 51.436 1.505 121.879.417 215.821 0 .018.002.036.002.055 0 .021-.003.041-.003.061v40c0 5.522 4.478 10 10 10h120c5.522 0 10-4.478 10-10 0-15.575 0-128.967 0-144.02 0-48.557 3.483-99.177 10-147.169 6.517 47.992 10 98.612 10 147.169v144.02c0 5.522 4.478 10 10 10h120c5.522 0 10-4.478 10-10v-40c0-.021-.003-.041-.003-.062 0-.019.002-.036.002-.055-1.109-95.151-.242-165.955.392-217.654.512-41.772.881-71.953.124-96.945-1.391-45.538-6.61-71.089-20.515-99.611v-37.673c0-5.523-4.477-10-10-10zm-30 60h23.716c9.807 21.228 14.356 41.599 16.177 73.238-24.03-11.405-39.893-35.781-39.893-63.238zm20-20h-20v-20h20zm-40 0h-140v-20h140zm-60 20h20v50c0 13.036-8.361 24.152-20 28.28zm-100-40v20h-20v-20zm-23.716 40h23.716v10c0 27.458-15.861 51.83-39.885 63.233 1.837-31.671 6.385-52.045 16.169-73.233zm83.716 432h-100v-20h100zm0-134.02v94.02h-99.891c.917-89.136.087-156.511-.526-206.184-.474-38.325-.827-67.019-.301-90.683 36.103-12.364 60.718-46.357 60.718-85.133v-10h60v89.048c-12.896 64.875-20 139.022-20 208.932zm160 134.02h-100v-20h100zm.392-248.016c-.611 49.95-1.44 117.709-.502 208.016h-99.89v-94.02c0-66.513-6.434-136.856-18.165-199.407 21.875-5.331 38.165-25.08 38.165-48.573v-50h20v10c0 38.769 24.608 72.761 60.709 85.131.487 23.199.143 51.32-.317 88.853z"/><path fill="#fff" d="m356.017 346c-5.522 0-10 4.477-10 10v66c0 5.523 4.478 10 10 10s10-4.477 10-10v-66c0-5.523-4.477-10-10-10z"/></svg>