<?xml version="1.0" encoding="UTF-8" standalone="no"?> <svg id="Layer_1" data-name="Layer 1" xmlns="http://www.w3.org/2000/svg" viewBox="0 0 128 128"><defs><style>.cls-1{fill:#fff;}</style></defs><title>b</title><path class="cls-1" d="M125.0674,44.2256H79.41634a11.27451,11.27451,0,0,0-7.99759,3.2249,11.05509,11.05509,0,0,0-2.76535,4.606,23.85934,23.85934,0,0,0-9.25769.18135,11.04563,11.04563,0,0,0-2.81448-4.7873,11.27448,11.27448,0,0,0-7.99759-3.2249H2.9326a1.87383,1.87383,0,0,0-1.87383,1.87383v5.28975a1.87386,1.87386,0,0,0,.72968,1.484l3.46311,2.67011V72.74121A11.03319,11.03319,0,0,0,16.28475,83.7744H45.3693a11.05239,11.05239,0,0,0,10.82631-8.91578l3.112-15.9253a17.51731,17.51731,0,0,1,9.3287-.28673l3.16806,16.212A11.05239,11.05239,0,0,0,82.6307,83.7744h29.08455a11.03319,11.03319,0,0,0,11.03319-11.03319V55.54327l3.46311-2.67011a1.87386,1.87386,0,0,0,.72968-1.484V46.09943A1.87383,1.87383,0,0,0,125.0674,44.2256ZM53.26679,56.13486l-3.417,17.4824A4.57271,4.57271,0,0,1,45.3693,77.309H16.28475a4.57353,4.57353,0,0,1-4.5678-4.5678V55.25879a4.57353,4.57353,0,0,1,4.5678-4.5678H48.783a4.565,4.565,0,0,1,4.48377,5.44387Zm63.01626-.59159V72.74121a4.57353,4.57353,0,0,1-4.5678,4.5678H82.6307a4.57271,4.57271,0,0,1-4.48053-3.69175l-3.417-17.4824A4.565,4.565,0,0,1,79.217,50.691h32.49827a4.57353,4.57353,0,0,1,4.5678,4.5678Z"/></svg>