<?xml version="1.0" encoding="utf-8"?>
<!-- Generator: Adobe Illustrator 23.0.3, SVG Export Plug-In . SVG Version: 6.00 Build 0)  -->
<svg version="1.1" id="Icons" xmlns="http://www.w3.org/2000/svg" xmlns:xlink="http://www.w3.org/1999/xlink" x="0px" y="0px"
	 viewBox="0 0 32 32" style="enable-background:new 0 0 32 32;" xml:space="preserve">
<style type="text/css">
	.st0{fill:#fff;stroke:#fff;stroke-width:2;stroke-linecap:round;stroke-linejoin:round;stroke-miterlimit:10;}
</style>
<path fill="#fff" d="M10.2,17.1c3.1,3.1,4.8,7.3,4.8,11.7v0.5c0,0.8,0.8,1.3,1.5,0.9l0,0c0.3-0.1,0.6-0.1,0.9,0l1.1,0.5c0.3,0.1,0.6,0.1,0.9,0
	l1.1-0.5c0.3-0.1,0.6-0.1,0.9,0l1.1,0.5c0.3,0.1,0.6,0.1,0.9,0l1.1-0.5c0.3-0.1,0.6-0.1,0.9,0l0,0c0.7,0.4,1.5-0.2,1.5-0.9V17.5V15
	V8.5C27,7.7,26.3,7,25.5,7S24,7.7,24,8.5v-1C24,6.7,23.3,6,22.5,6S21,6.7,21,7.5v-1C21,5.7,20.3,5,19.5,5S18,5.7,18,6.5v1
	C18,6.7,17.3,6,16.5,6S15,6.7,15,7.5V15v2.4l-2.5-2.5c-0.6-0.6-1.5-0.7-2.1-0.2C9.5,15.3,9.5,16.4,10.2,17.1L10.2,17.1z"/>
<path fill="#fff" d="M13,26.5c0-2.4-0.9-4.7-2.6-6.4l-1.6-1.6c-0.8-0.8-1.1-1.8-1-2.8c0.1-1.1,0.6-2,1.5-2.6c1.1-0.8,2.6-0.9,3.8-0.2l0-5.1
	c0-2,1.6-3.7,3.6-3.7c0.2,0,0.3,0,0.5,0c0.3-0.3,0.6-0.5,1-0.7C17.9,2.6,17.3,2,16.5,2C15.7,2,15,2.7,15,3.5v-1
	C15,1.7,14.3,1,13.5,1S12,1.7,12,2.5v1C12,2.7,11.3,2,10.5,2S9,2.7,9,3.5v1C9,3.7,8.3,3,7.5,3S6,3.7,6,4.5V11v2.5v11.8
	c0,0.8,0.8,1.3,1.5,1c0.3-0.1,0.6-0.2,0.9,0l1.1,0.6c0.3,0.1,0.6,0.1,0.9,0l1.1-0.5c0.3-0.1,0.6-0.1,0.9,0L13,26.5L13,26.5z"/>
</svg>
