<?xml version="1.0" encoding="iso-8859-1"?>
<!-- Generator: Adobe Illustrator 19.0.0, SVG Export Plug-In . SVG Version: 6.00 Build 0)  -->
<svg version="1.1" id="Capa_1" xmlns="http://www.w3.org/2000/svg" xmlns:xlink="http://www.w3.org/1999/xlink" x="0px" y="0px"
	 viewBox="0 0 512.002 512.002" style="enable-background:new 0 0 512.002 512.002;" xml:space="preserve">
<path style="fill:none;" d="M453.091,110.471c-10.92-25.5-33.14-44.42-60.05-51.15l-57.29-9.32h-95l-57.29,9.32
	c-26.91,6.73-49.13,25.65-60.05,51.15l-20.784,80.458c-2.33,9.019,1.303,18.525,9.053,23.692l0,0
	c6.802,4.534,15.563,4.902,22.72,0.953l0,0c20.829-11.492,46.35,3.575,46.35,27.364v197.753
	c30.421,11.154,68.173,17.927,107.5,20.323c39.327-2.395,77.079-9.168,107.5-20.323v-250.69l46,60l19-12.667l24.015-16.01
	L501.75,210L453.091,110.471z"/>
<g>
	<path style="fill:none;" d="M395.751,440.691v40c-38.74,14.21-89.37,21.31-140,21.31s-101.26-7.1-140-21.31v-40
		C193.231,469.101,318.271,469.101,395.751,440.691z"/>
	<polygon style="fill:none;" points="315.751,10.001 195.751,10.001 175.751,50.001 215.751,110.001 255.751,70.001 
		295.751,110.001 335.751,50.001 	"/>
</g>
<path fill="#fff" d="M256.001,160.001c-5.52,0-10,4.48-10,10s4.48,10,10,10c5.52,0,10-4.48,10-10S261.521,160.001,256.001,160.001z"/>
<path fill="#fff" d="M462.432,106.298c-12.112-28.077-37.034-49.255-66.714-56.678c-0.271-0.068-0.545-0.124-0.821-0.169l-52.239-8.498
	L324.945,5.529c-0.003-0.006-0.007-0.011-0.01-0.017c-1.62-3.226-4.962-5.442-8.776-5.505c-0.053-0.001-0.106-0.006-0.159-0.006H196
	c-3.744,0-7.241,2.138-8.935,5.511c-0.003,0.006-0.007,0.011-0.01,0.017l-17.712,35.424l-52.239,8.498
	c-0.276,0.045-0.55,0.101-0.821,0.169c-29.681,7.423-54.602,28.601-66.714,56.678L1.017,205.609c-2.2,4.5-0.731,9.934,3.437,12.712
	l60,40c4.381,2.92,10.278,1.943,13.483-2.236l28.064-36.605v261.211c0,4.195,2.618,7.944,6.556,9.388
	c38.54,14.137,89.482,21.922,143.444,21.922s104.904-7.785,143.444-21.922c3.74-1.374,6.467-4.976,6.547-9.204
	c0.001-0.062,0.009-0.122,0.009-0.184V219.48l28.064,36.605c3.205,4.18,9.102,5.157,13.483,2.236l60-40
	c4.168-2.778,5.637-8.212,3.437-12.712L462.432,106.298z M198.741,26.883l43.118,43.118l-24.303,24.304l-30.015-45.022
	L198.741,26.883z M313.262,26.883l11.2,22.4l-30.015,45.022l-24.303-24.304L313.262,26.883z M291.859,20.001l-35.858,35.858
	l-35.858-35.858H291.859z M126.001,473.599v-19.007c36.586,11.267,82.103,17.406,130,17.406s93.414-6.14,130-17.406v19.004
	c-35.559,11.892-81.372,18.405-130,18.405C207.374,492.001,161.56,485.491,126.001,473.599z M444.242,236.488l-40.305-52.572
	c-2.607-3.401-7.093-4.762-11.148-3.385c-4.058,1.376-6.788,5.185-6.788,9.47v243.592c-73.471,24.552-186.529,24.552-260,0V190.001
	c0-4.285-2.73-8.093-6.788-9.47c-4.06-1.378-8.542-0.015-11.148,3.386L67.76,236.488l-44.932-29.955l44.817-91.67
	c0.073-0.15,0.143-0.302,0.208-0.456c9.575-22.358,29.328-39.261,52.89-45.286l50.508-8.217l36.429,54.643
	c3.488,5.233,10.915,6,15.392,1.524l22.929-22.929v35.857c0,5.523,4.477,10,10,10c5.523,0,10-4.477,10-10V94.144l22.929,22.929
	c4.482,4.481,11.909,3.7,15.392-1.524l36.429-54.643l50.509,8.217c23.563,6.025,43.314,22.928,52.889,45.286
	c0.065,0.154,0.135,0.306,0.208,0.456l44.818,91.67L444.242,236.488z"/>
<g>
</g>
<g>
</g>
<g>
</g>
<g>
</g>
<g>
</g>
<g>
</g>
<g>
</g>
<g>
</g>
<g>
</g>
<g>
</g>
<g>
</g>
<g>
</g>
<g>
</g>
<g>
</g>
<g>
</g>
</svg>
