<svg xmlns="http://www.w3.org/2000/svg" viewBox="0 0 64 64"><g id="Layer_43" data-name="Layer 43"><path fill="#fff" d="M58.75,26.87a1,1,0,0,0-1-1,5.59,5.59,0,0,1-5.6-5.57V4a1,1,0,0,0-1-1H12.86a1,1,0,0,0-1,1V20.3a5.58,5.58,0,0,1-5.57,5.56,1,1,0,0,0-1,1V60a1,1,0,0,0,1,1H24.11A8.91,8.91,0,0,0,32,56.22,8.91,8.91,0,0,0,39.89,61H57.75a1,1,0,0,0,1-1ZM7.25,39.76H31v5.29H7.25Zm25.75,0H56.75v5.29H33Zm23.75-12v6H33V24.65C36.79,21.86,44.48,14.45,42,5h8.13V20.3A7.57,7.57,0,0,0,56.75,27.79ZM24,5H40c2.38,8.41-4.08,14.87-8,17.89C28.08,19.85,21.66,13.41,24,5ZM13.85,20.3V5H22c-2.47,9.45,5.26,16.89,9,19.65v9.17H7.25v-6A7.57,7.57,0,0,0,13.85,20.3ZM24.11,59H7.25V51H31A7,7,0,0,1,24.11,59ZM33,52.16V51H56.75v8H39.89A6.87,6.87,0,0,1,33,52.16Z"/></g></svg>