<?xml version="1.0" encoding="UTF-8" standalone="no"?> <svg xmlns="http://www.w3.org/2000/svg" viewBox="0 0 48 48"><defs><style>.cls-1{fill:none;}</style></defs><title>pants</title><g id="Layer_2" data-name="Layer 2"><g id="icons"><path fill="#fff" d="M32,19.51l-2.85-7.88a.09.09,0,0,0-.1-.06H19.15a.09.09,0,0,0-.1.06L16.2,19.37h0L16,36.76a6.41,6.41,0,0,0,0,1.16l5.83,0s.1,0,.1-.07L24,22.36c0-.05.05-.07.1-.07s.1,0,.1.07l2,15.46s.05.07.1.07H32V19.51Zm-3.57-6.94.42,1.16h-3.7V12.58H22.86v1.15H19.34l.43-1.16ZM31,36.89H27.13l-1.9-14.65a1.1,1.1,0,0,0-1.09-.95,1.08,1.08,0,0,0-1.09.94l-2,14.67H17v-.14l.18-17.21,1.72-4.68H29.25L31,19.69Z"/><rect class="cls-1" width="48" height="48"/></g></g></svg>