<?xml version="1.0" encoding="utf-8"?>
<!-- Generator: Adobe Illustrator 23.0.3, SVG Export Plug-In . SVG Version: 6.00 Build 0)  -->
<svg version="1.1" id="Layer_1" xmlns="http://www.w3.org/2000/svg" xmlns:xlink="http://www.w3.org/1999/xlink" x="0px" y="0px"
	 viewBox="0 0 150 150" style="enable-background:new 0 0 150 150;" xml:space="preserve">
<style type="text/css">
	.st0{fill:none;}
	.st1{fill:none;stroke:#000000;stroke-width:3;stroke-linecap:round;stroke-linejoin:round;stroke-miterlimit:10;}
	.st2{fill:url(#SVGID_1_);}
	.st3{fill:url(#SVGID_2_);}
	.st4{fill:url(#SVGID_3_);}
	.st5{fill:url(#SVGID_4_);}
	.st6{fill:url(#SVGID_5_);}
	.st7{fill:url(#SVGID_6_);}
	.st8{fill:url(#SVGID_7_);}
	.st9{fill:url(#SVGID_8_);}
	.st10{fill:url(#SVGID_9_);}
	.st11{fill:url(#SVGID_10_);}
	.st12{fill:url(#SVGID_11_);}
	.st13{fill:url(#SVGID_12_);}
	.st14{fill:url(#SVGID_13_);}
	.st15{fill:url(#SVGID_14_);}
	.st16{fill:url(#SVGID_15_);}
	.st17{fill:url(#SVGID_16_);}
	.st18{fill:url(#SVGID_17_);}
	.st19{fill:url(#SVGID_18_);}
	.st20{fill:#63BE6E;}
	.st21{fill:#E53357;}
	.st22{fill:#5955A2;}
	.st23{fill:#92870B;}
	.st24{fill:#EDC21D;}
	.st25{fill:#007837;}
	.st26{fill:#EC694B;}
	.st27{fill:#3D64A9;}
	.st28{fill:#9A782E;}
	.st29{fill:#A8B436;}
	.st30{fill:#F7F7F7;}
	.st31{fill:url(#SVGID_19_);}
	.st32{fill:url(#SVGID_20_);}
	.st33{fill:url(#SVGID_21_);}
	.st34{fill:url(#SVGID_22_);}
	.st35{fill:url(#SVGID_23_);}
	.st36{fill:url(#SVGID_24_);}
	.st37{fill:url(#SVGID_25_);}
	.st38{fill:url(#SVGID_26_);}
	.st39{fill:url(#SVGID_27_);}
	.st40{fill:url(#SVGID_28_);}
	.st41{fill:url(#SVGID_29_);}
	.st42{fill:url(#SVGID_30_);}
	.st43{fill:url(#SVGID_31_);}
	.st44{fill:url(#SVGID_32_);}
	.st45{fill:url(#SVGID_33_);}
	.st46{fill:url(#SVGID_34_);}
	.st47{fill:url(#SVGID_35_);}
	.st48{fill:url(#SVGID_36_);}
	.st49{fill:url(#SVGID_37_);}
	.st50{fill:url(#SVGID_38_);}
	.st51{fill:url(#SVGID_39_);}
	.st52{fill:url(#SVGID_40_);}
	.st53{fill:url(#SVGID_41_);}
	.st54{fill:url(#SVGID_42_);}
	.st55{fill:url(#SVGID_43_);}
	.st56{fill:url(#SVGID_44_);}
	.st57{fill:url(#SVGID_45_);}
	.st58{fill:url(#SVGID_46_);}
	.st59{fill:url(#SVGID_47_);}
	.st60{fill:url(#SVGID_48_);}
	.st61{fill:url(#SVGID_49_);}
	.st62{fill:url(#SVGID_50_);}
	.st63{fill:#0C509F;}
	.st64{fill:url(#SVGID_51_);}
	.st65{fill:url(#SVGID_52_);}
	.st66{fill:url(#SVGID_53_);}
	.st67{fill:url(#SVGID_54_);}
	.st68{fill:url(#SVGID_55_);}
	.st69{fill:url(#SVGID_56_);}
	.st70{fill:url(#SVGID_57_);}
	.st71{fill:url(#SVGID_58_);}
	.st72{fill:url(#SVGID_59_);}
	.st73{fill:url(#SVGID_60_);}
	.st74{fill:url(#SVGID_61_);}
	.st75{fill:url(#SVGID_62_);}
	.st76{fill:url(#SVGID_63_);}
	.st77{fill:url(#SVGID_64_);}
	.st78{fill:url(#SVGID_65_);}
	.st79{fill:url(#SVGID_66_);}
	.st80{fill:url(#SVGID_67_);}
	.st81{fill:url(#SVGID_68_);}
	.st82{fill:url(#SVGID_69_);}
	.st83{fill:url(#SVGID_70_);}
	.st84{fill:url(#SVGID_71_);}
	.st85{fill:url(#SVGID_72_);}
	.st86{fill:url(#SVGID_73_);}
	.st87{fill:url(#SVGID_74_);}
	.st88{fill:url(#SVGID_75_);}
	.st89{fill:url(#SVGID_76_);}
	.st90{fill:url(#SVGID_77_);}
	.st91{fill:url(#SVGID_78_);}
	.st92{fill:url(#SVGID_79_);}
	.st93{fill:url(#SVGID_80_);}
	.st94{fill:url(#SVGID_81_);}
	.st95{fill:url(#SVGID_82_);}
	.st96{fill:url(#SVGID_83_);}
	.st97{fill:url(#SVGID_84_);}
	.st98{fill:url(#SVGID_85_);}
	.st99{fill:url(#SVGID_86_);}
	.st100{fill:url(#SVGID_87_);}
	.st101{fill:url(#SVGID_88_);}
	.st102{fill:url(#SVGID_89_);}
	.st103{fill:url(#SVGID_90_);}
	.st104{fill:url(#SVGID_91_);}
	.st105{fill:url(#SVGID_92_);}
	.st106{fill:url(#SVGID_93_);}
	.st107{fill:url(#SVGID_94_);}
	.st108{fill:url(#SVGID_95_);}
	.st109{fill:url(#SVGID_96_);}
	.st110{fill:url(#SVGID_97_);}
	.st111{fill:url(#SVGID_98_);}
	.st112{fill:url(#SVGID_99_);}
	.st113{fill:url(#SVGID_100_);}
</style>
<rect x="-264.5" y="-2165.6" class="st0" width="677.6" height="5020.2"/>
<g>
	<g>
		<path fill="#fff" d="M72.7,105.7c-19.2,0-40.7-0.2-49.5-0.3c-3.2,0-5.7-2.6-5.7-5.8v-5c-1-1.2-2.8-4.3-3-11.1c-0.2-8.5,1.6-25.1,1.7-25.9
			c0.2-2.7,2.4-7.9,9.4-7.5c2.6,0.2,4.4,1.1,5.3,2.7c1,1.7,0.6,3.8,0.1,5.2l16.2,5.8l14.4-13.4c1.9-1.7,4.5-2.3,6.9-1.3l56.8,21.6
			c2,0.2,16.3,2.3,17.6,11.6c1,7.7,0.8,15.2-8.1,17.9c-1,0.3-1.9,0.6-2.9,0.9c-5.7,1.8-11.6,3.7-28.6,4.3
			C96.8,105.6,85.3,105.7,72.7,105.7z M24.7,53.1c-5,0-5.5,4.3-5.6,4.8c0,0.2-1.9,17.2-1.6,25.5c0.2,7.4,2.4,9.5,2.5,9.5
			c0.4,0.3,0.5,0.7,0.5,1.2v5.6c0,1.5,1.2,2.8,2.8,2.8c14.6,0.1,63.5,0.6,80,0c16.6-0.6,22-2.3,27.8-4.2c1-0.3,1.9-0.6,2.9-0.9
			c5.7-1.7,7.2-5.5,6-14.6c-0.8-6.2-11.2-8.6-15.1-9.1c-0.1,0-0.3,0-0.4-0.1l-57-21.7c-1.3-0.5-2.7-0.2-3.8,0.7L48.5,66.6
			c-0.4,0.4-1,0.5-1.5,0.3l-18.6-6.6c-0.4-0.1-0.7-0.5-0.9-0.9c-0.2-0.4-0.1-0.9,0.1-1.3c0.3-0.6,1.2-2.7,0.6-3.9
			c-0.5-0.9-1.8-1.1-2.9-1.2C25.1,53.1,24.9,53.1,24.7,53.1z"/>
		<path fill="#fff" d="M97.9,97.2c-19.7,0-42-1.6-43.8-1.7H19c-0.8,0-1.5-0.7-1.5-1.5s0.7-1.5,1.5-1.5h35.1c0,0,0.1,0,0.1,0
			c0.5,0,52.7,3.7,68.7,0c15.5-3.5,18-4.8,18.2-4.8c0.7-0.4,1.6-0.1,2,0.6c0.4,0.7,0.1,1.6-0.6,2c-0.4,0.2-3,1.5-18.9,5.1
			C118,96.7,108.3,97.2,97.9,97.2z"/>
		<path fill="#fff" d="M48.2,95.5c-0.6,0-1.1-0.3-1.4-0.8c0-0.1-3.1-6.4-8.6-15.1c-5.2-8.2-21.6-9.6-21.7-9.7c-0.8-0.1-1.4-0.8-1.4-1.6
			c0.1-0.8,0.8-1.4,1.6-1.4c0.7,0.1,18,1.6,24,11c5.6,8.9,8.7,15.2,8.8,15.4c0.4,0.7,0,1.6-0.7,2C48.7,95.4,48.4,95.5,48.2,95.5z"/>
		<path fill="#fff" d="M92.7,97.1c-0.4,0-0.8-0.2-1.1-0.5C91,96,91.1,95,91.7,94.5c2.2-2,13.6-12,16.9-12.8c0.8-0.2,2.2-0.4,4.1-0.7
			c5.6-0.9,16.1-2.6,22.3-5.2c0.8-0.3,1.6,0,2,0.8c0.3,0.8,0,1.6-0.8,2c-6.5,2.8-16.8,4.5-23,5.5c-1.8,0.3-3.2,0.5-3.9,0.7
			c-1.7,0.4-9.2,6.5-15.6,12.1C93.4,97,93,97.1,92.7,97.1z"/>
		<path fill="#fff" d="M101.9,88.7c-22.5,0-62.2-8.4-62.7-8.5c-0.8-0.2-1.3-1-1.2-1.8s1-1.3,1.8-1.2c0.4,0.1,40.9,8.7,62.9,8.4c0,0,0,0,0,0
			c0.8,0,1.5,0.7,1.5,1.5c0,0.8-0.7,1.5-1.5,1.5C102.5,88.7,102.2,88.7,101.9,88.7z"/>
		<path fill="#fff" d="M54,83c-0.5,0-0.9-0.2-1.2-0.6c-0.5-0.7-0.3-1.6,0.4-2.1l17.2-12c0.4-0.3,1-0.4,1.5-0.1c0.1,0,6.2,2.5,25.7,2.7
			c13.2,0.2,15.7-1.7,16.2-2.1c-0.2-0.6,0.1-1.3,0.7-1.7c0.7-0.4,1.6-0.2,2.1,0.5c0.3,0.6,0.5,1.6,0,2.6c-0.9,1.7-3.9,3.9-18.9,3.7
			c-16.5-0.2-23.8-1.9-26-2.7L54.8,82.7C54.6,82.9,54.3,83,54,83z M113.8,69.1C113.8,69.1,113.8,69.1,113.8,69.1
			C113.8,69.1,113.8,69.1,113.8,69.1z"/>
		<path fill="#fff" d="M67.1,85.2c-0.5,0-0.9-0.2-1.2-0.6c-0.5-0.7-0.4-1.6,0.3-2.1l16.2-12.1c0.7-0.5,1.6-0.4,2.1,0.3c0.5,0.7,0.4,1.6-0.3,2.1
			L68,84.9C67.7,85.1,67.4,85.2,67.1,85.2z"/>
		<path fill="#fff" d="M78.9,86.9c-0.5,0-0.9-0.2-1.2-0.6c-0.5-0.7-0.3-1.6,0.4-2.1l18.5-13.1c0.7-0.5,1.6-0.3,2.1,0.4c0.5,0.7,0.3,1.6-0.4,2.1
			L79.7,86.6C79.5,86.8,79.2,86.9,78.9,86.9z"/>
		<path fill="#fff" d="M68.7,59.7c-0.3,0-0.7-0.1-1-0.4c-0.6-0.5-0.7-1.5-0.2-2.1l4.8-5.7c0.5-0.6,1.5-0.7,2.1-0.2c0.6,0.5,0.7,1.5,0.2,2.1
			l-4.8,5.7C69.5,59.5,69.1,59.7,68.7,59.7z"/>
		<path fill="#fff" d="M76.2,62.8c-0.3,0-0.7-0.1-0.9-0.3c-0.6-0.5-0.7-1.5-0.2-2.1l4.7-5.9c0.5-0.6,1.5-0.7,2.1-0.2c0.6,0.5,0.7,1.5,0.2,2.1
			l-4.7,5.9C77.1,62.6,76.7,62.8,76.2,62.8z"/>
		<path fill="#fff" d="M84.6,65.6c-0.3,0-0.6-0.1-0.9-0.3c-0.7-0.5-0.8-1.4-0.3-2.1l4.2-5.8c0.5-0.7,1.4-0.8,2.1-0.3c0.7,0.5,0.8,1.4,0.3,2.1
			L85.8,65C85.5,65.4,85,65.6,84.6,65.6z"/>
		<path fill="#fff" d="M91.3,68.7c-0.3,0-0.7-0.1-1-0.4c-0.6-0.5-0.7-1.5-0.2-2.1l5-5.9c0.5-0.6,1.5-0.7,2.1-0.2c0.6,0.5,0.7,1.5,0.2,2.1l-5,5.9
			C92.1,68.5,91.7,68.7,91.3,68.7z"/>
	</g>
</g>
</svg>
