<svg enable-background="new 0 0 512 512" viewBox="0 0 512 512" xmlns="http://www.w3.org/2000/svg"><path d="m363.238 50.001v-40.001h-160.005v210.526c0 13.06-6.37 25.291-17.06 32.771l-83.282 58.302c-6.35 4.44-11.85 9.64-16.48 15.39l97.593 121.983c8.692-4.286 12.517-7.852 26.231-17.21l48.941 61.182c6.628-3.479-3.806 3.488 150.004-104.393 21.351-14.97 34.061-39.421 34.061-65.492 0-10.176 0-253.357 0-273.057z" fill="none"/><g fill="none"><path d="m393.128 335.809c-2.29 3.93-4.26 8.06-5.87 12.38-3.24 8.7-5.02 18.12-5.02 27.961 0 9.779 1.769 19.142 4.979 27.803l21.962-15.402c21.351-14.97 34.061-39.421 34.061-65.492v-24.637c-21.325 5.193-39.307 18.929-50.112 37.387z"/><path fill="none" d="m363.238 256.285c-37.996 6.213-67.002 39.181-67.002 78.934 0 11.284 2.354 22.013 6.568 31.747l26.313-18.417c10.02-7.01 18.151-16.12 23.951-26.511 6.57-11.76 10.17-25.161 10.17-39.031z"/><path d="m259.175 492.944-26.987-33.736c-10.954 7.603-14.983 11.027-22.98 14.97l-33.931 8.16c1.234 2.508 2.619 4.97 4.138 7.381 23.699 14.878 54.147 16.618 79.76 3.225z"/></g><path d="m403.239 120.003c5.52 0 10-4.48 10-10s-4.48-10-10-10-10 4.48-10 10 4.48 10 10 10z"/><path d="m323.237 80.002c5.52 0 10-4.48 10-10s-4.48-10-10-10-10 4.48-10 10c-.001 5.52 4.479 10 10 10z"/><path d="m114.568 449.466c11.103 5.238 23.273 7.857 35.504 7.666l33.931-8.16-63.135-78.913c-16.007 23.363-18.484 53.702-6.3 79.407z" fill="none"/><path fill="#fff" d="m363.238 0h-160.005c-5.523 0-10 4.478-10 10v210.526c0 9.784-4.783 18.973-12.795 24.579-82.186 58.755-87.603 58.365-101.759 75.544-.019.023-.039.045-.057.068-24.257 30.122-27.288 74.196-3.584 108.029 15.963 22.805 41.417 36.806 68.998 38.263 24.29 41.877 77.333 56.988 119.787 34.789.031-.016.061-.034.093-.051.039-.021.078-.042.117-.064 8.813-4.657-.3.858 150.888-104.945 23.995-16.823 38.32-44.367 38.32-73.68v-273.057c0-5.522-4.477-10-10-10h-70.002v-30.001c-.001-5.522-4.478-10-10.001-10zm-75.673 365.427c-9.279-12.141-14.328-26.917-14.328-42.418 0-38.599 31.403-70.002 70.002-70.002 3.352 0 6.694.247 10 .719v29.282c0 23.274-11.544 44.538-29.855 57.35zm-95.658-103.937c13.354-9.345 21.328-24.659 21.328-40.965v-140.523h70.002c5.523 0 10-4.478 10-10s-4.477-10-10-10h-70.002v-40.001h140.004v213.57c-3.316-.368-6.655-.564-10-.564-49.627 0-90.002 40.375-90.002 90.002 0 19.657 6.313 38.407 17.932 53.895l-82.273 57.586c-.781.549-1.58 1.081-2.39 1.601l-86.978-108.714c2.806-2.77 5.845-5.311 9.098-7.586zm-100.487 155.784c-15.739-22.469-16.382-50.803-4.269-73.351l80.504 100.623c-28.244 7.927-58.951-2.583-76.235-27.272zm75.575 48.025c11.911-2.453 23.391-7.414 33.383-14.432l7.906-5.532 34.789 43.49c-27.394 8.575-57.925-.536-76.078-23.526zm94.54 14.584-36.831-46.043 108.704-76.086c-1.279 22.225 5.492 42.829 17.822 59.228-2.348 1.645-88.978 62.414-89.695 62.901zm141.902-99.52-35.824 25.127c-17.486-22.828-18.931-53.616-4.854-77.769 12.531-21.412 35.707-34.713 60.481-34.713 3.352 0 6.694.247 10 .719v29.332c0 22.797-11.141 44.22-29.803 57.304zm29.803-320.361v213.57c-3.316-.368-6.655-.564-10-.564-18.099 0-35.53 5.526-50.167 15.346.107-1.778.166-3.561.166-5.346v-223.006z"/></svg>